<?xml version="1.0" standalone="no"?>
<!DOCTYPE svg PUBLIC "-//W3C//DTD SVG 20010904//EN"
 "http://www.w3.org/TR/2001/REC-SVG-20010904/DTD/svg10.dtd">
<svg version="1.0" xmlns="http://www.w3.org/2000/svg"
 width="16.000000pt" height="16.000000pt" viewBox="0 0 16.000000 16.000000"
 preserveAspectRatio="xMidYMid meet">
<metadata>
Created by potrace 1.11, written by Peter Selinger 2001-2013
</metadata>
<g transform="translate(0.000000,16.000000) scale(0.000813,-0.000813)"
fill="#000000" stroke="none">
<path d="M11488 18845 c-2 -1 -176 -5 -388 -9 -212 -3 -412 -8 -445 -10 -33
-3 -118 -7 -190 -11 -71 -3 -152 -8 -180 -10 -27 -2 -88 -7 -135 -10 -47 -3
-125 -10 -175 -16 -49 -5 -112 -12 -140 -14 -27 -3 -61 -7 -75 -10 -23 -4 -72
-11 -140 -20 -14 -2 -38 -6 -55 -9 -16 -2 -50 -8 -75 -11 -25 -4 -54 -9 -65
-11 -11 -2 -72 -14 -135 -25 -63 -11 -131 -24 -150 -29 -19 -5 -96 -23 -170
-40 -303 -67 -512 -125 -870 -242 -161 -53 -455 -160 -515 -188 -11 -5 -74
-31 -140 -59 -122 -51 -149 -63 -335 -154 -576 -282 -1065 -634 -1339 -967
-231 -279 -343 -456 -430 -675 -38 -97 -84 -253 -96 -325 -3 -19 -10 -51 -15
-70 -4 -19 -11 -62 -15 -95 -4 -33 -9 -71 -11 -85 -1 -14 -6 -59 -10 -100 -4
-41 -8 -88 -10 -105 -45 -464 -53 -1433 -19 -2397 4 -115 18 -418 30 -648 3
-58 7 -152 10 -210 3 -58 7 -132 10 -165 2 -33 7 -114 10 -180 4 -66 8 -140
10 -165 2 -25 7 -108 11 -185 l6 -141 -24 -11 c-33 -15 -129 -33 -253 -49
-134 -17 -258 -34 -285 -39 -13 -3 -40 -7 -60 -10 -84 -13 -346 -79 -480 -121
-422 -134 -824 -334 -1200 -598 -63 -44 -117 -83 -120 -86 -3 -3 -45 -37 -95
-75 -243 -188 -493 -441 -680 -690 -33 -44 -63 -81 -67 -83 -5 -2 -8 -10 -8
-17 0 -7 -4 -15 -8 -17 -14 -5 -136 -198 -208 -328 -218 -394 -363 -809 -430
-1230 -3 -19 -7 -46 -10 -60 -2 -14 -7 -52 -10 -85 -3 -33 -10 -91 -14 -130
-9 -75 -6 -553 3 -595 3 -14 8 -51 11 -83 13 -134 65 -390 106 -517 5 -14 23
-72 41 -130 57 -186 227 -582 309 -720 5 -8 40 -67 77 -130 37 -63 83 -137
102 -165 19 -27 48 -70 65 -95 141 -211 367 -469 620 -705 41 -39 202 -172
266 -221 36 -27 67 -51 70 -54 7 -7 269 -181 300 -199 174 -101 283 -158 432
-225 241 -108 481 -191 823 -287 77 -21 154 -43 170 -48 24 -8 142 -37 225
-56 8 -2 65 -14 125 -28 61 -14 128 -28 150 -31 22 -4 47 -8 55 -11 8 -2 62
-11 120 -19 58 -9 115 -18 128 -21 21 -4 78 -10 177 -20 301 -31 763 -26 1024
9 20 3 68 8 106 12 39 3 99 9 134 13 l63 8 30 -66 c16 -36 46 -104 65 -151 55
-133 187 -431 263 -595 58 -126 220 -369 330 -495 286 -329 566 -564 854 -719
43 -23 124 -73 180 -110 203 -136 363 -220 601 -318 188 -78 509 -181 645
-208 8 -2 33 -8 55 -13 22 -6 51 -13 65 -16 14 -2 57 -11 95 -19 120 -26 179
-37 213 -42 18 -2 45 -6 60 -9 30 -6 89 -15 142 -22 117 -15 192 -24 245 -29
33 -3 78 -8 100 -10 402 -44 1002 -47 1325 -6 41 6 102 13 135 16 32 4 62 8
65 10 3 2 35 7 70 10 36 4 67 8 71 10 5 4 17 6 102 21 222 37 645 149 887 235
47 16 90 31 95 33 38 11 165 62 299 119 149 63 390 180 496 242 36 20 81 46
100 57 240 135 535 388 720 618 25 30 61 73 80 96 402 464 504 625 663 1039
156 409 448 1279 571 1700 57 196 142 553 171 715 3 17 12 63 21 103 9 39 17
82 19 94 2 11 6 29 9 40 3 10 8 34 11 53 3 19 10 53 15 75 5 22 12 56 15 75 3
19 14 78 25 130 10 52 21 107 24 122 25 145 59 272 96 363 34 84 307 899 337
1005 15 54 42 175 48 215 3 20 21 117 30 164 2 14 7 47 10 75 3 28 8 58 10 66
2 8 7 35 10 60 3 25 8 63 11 85 3 22 7 51 9 65 2 14 6 45 10 70 4 25 8 56 10
70 2 14 7 52 11 85 3 33 8 69 10 80 4 18 37 283 49 395 3 25 7 59 9 75 11 85
21 183 30 280 4 39 9 88 11 110 7 55 13 126 20 220 4 44 8 96 10 115 2 19 7
71 10 115 3 44 8 98 10 120 24 264 25 892 0 1024 -1 9 -6 41 -10 71 -3 30 -15
107 -26 170 -10 63 -21 132 -23 154 -3 21 -8 55 -10 75 -3 20 -8 60 -11 90 -4
30 -8 62 -10 72 -2 9 -6 50 -10 91 -3 40 -8 80 -10 88 -2 8 -7 49 -10 90 -4
41 -8 86 -10 100 -2 14 -7 59 -10 100 -4 41 -8 86 -10 100 -1 14 -6 63 -10
110 -3 47 -8 96 -10 110 -2 14 -7 68 -10 120 -4 52 -9 113 -11 135 -19 242
-24 519 -12 685 20 254 29 1008 17 1455 -2 83 1 195 6 250 16 170 11 577 -10
720 -2 17 -7 57 -10 90 -22 242 -105 502 -227 714 -26 46 -48 85 -48 87 0 8
-136 204 -175 253 -123 154 -260 292 -465 471 -73 64 -327 245 -445 317 -298
182 -593 325 -965 466 -72 27 -310 104 -375 122 -16 4 -77 21 -135 36 -58 16
-114 31 -125 33 -11 3 -60 14 -110 26 -49 12 -101 24 -115 26 -14 3 -68 14
-120 25 -52 11 -104 22 -115 24 -20 3 -65 11 -115 20 -14 3 -41 7 -60 10 -19
3 -57 10 -85 15 -47 9 -91 15 -165 25 -17 2 -43 6 -58 9 -15 3 -52 8 -82 12
-30 3 -64 7 -75 9 -46 6 -142 18 -165 20 -78 8 -168 17 -190 20 -14 2 -61 7
-105 10 -44 4 -96 8 -115 10 -19 2 -73 7 -120 10 -47 3 -107 8 -135 10 -47 4
-160 10 -360 21 -49 2 -229 7 -400 10 -170 3 -318 7 -327 8 -9 2 -18 3 -20 1z
m-5962 -9040 c1 -16 4 -75 8 -130 23 -371 32 -539 41 -765 9 -244 16 -412 20
-445 1 -16 6 -64 10 -105 3 -41 8 -88 10 -105 2 -16 7 -59 10 -95 4 -36 8 -76
11 -90 2 -14 6 -45 9 -70 12 -95 57 -387 66 -428 5 -23 12 -59 15 -80 5 -31
11 -64 39 -193 2 -9 27 -106 55 -215 28 -110 74 -287 101 -394 121 -471 154
-598 210 -800 33 -118 76 -266 95 -329 31 -103 33 -118 22 -150 -7 -20 -13
-38 -13 -41 -4 -20 -39 -88 -66 -127 -143 -210 -427 -302 -834 -269 -134 11
-204 22 -515 82 -14 3 -41 9 -60 14 -19 5 -46 11 -60 14 -86 15 -337 97 -446
146 -398 177 -706 409 -990 745 -93 111 -221 291 -288 405 -62 107 -164 329
-174 380 -40 195 -53 396 -38 565 8 94 41 261 63 325 8 25 16 50 17 55 10 38
82 204 124 285 43 81 242 419 262 443 6 7 49 63 97 126 308 402 694 721 1173
969 213 111 496 221 663 257 10 2 26 6 35 9 9 3 35 8 57 12 22 3 42 7 46 9 3
2 39 7 80 11 40 3 75 7 76 8 1 0 16 1 35 1 30 0 33 -3 34 -30z"/>
</g>
</svg>
